<svg width="180" height="30" viewBox="0 0 180 30" fill="none" xmlns="http://www.w3.org/2000/svg">
<path d="M2.21729e-05 23.2727V-2.28882e-05H15.4091V4.0568H4.92048V9.60225H14.3864V13.6591H4.92048V23.2727H2.21729e-05ZM63.0284 23.5568C61.7027 23.5568 60.5019 23.2159 59.4262 22.5341C58.358 21.8447 57.5095 20.8333 56.8807 19.5C56.2595 18.1591 55.9489 16.5151 55.9489 14.5682C55.9489 12.5682 56.2709 10.9053 56.9148 9.57952C57.5587 8.24619 58.4148 7.24998 59.483 6.59089C60.5587 5.92422 61.7368 5.59089 63.0171 5.59089C63.9943 5.59089 64.8087 5.75755 65.4602 6.09089C66.1193 6.41664 66.6496 6.82574 67.0512 7.31816C67.4602 7.80301 67.7709 8.28028 67.983 8.74998H68.1307V-2.28882e-05H72.9603V23.2727H68.1875V20.4773H67.983C67.7557 20.9621 67.4337 21.4432 67.0171 21.9204C66.608 22.3901 66.0739 22.7803 65.4148 23.0909C64.7633 23.4015 63.9678 23.5568 63.0284 23.5568ZM64.5625 19.7045C65.3428 19.7045 66.0019 19.4924 66.5398 19.0682C67.0852 18.6363 67.5019 18.0341 67.7898 17.2613C68.0852 16.4886 68.233 15.5833 68.233 14.5454C68.233 13.5076 68.089 12.606 67.8012 11.8409C67.5133 11.0757 67.0966 10.4848 66.5512 10.0682C66.0057 9.65149 65.3428 9.44316 64.5625 9.44316C63.7671 9.44316 63.0966 9.65907 62.5512 10.0909C62.0057 10.5227 61.5928 11.1212 61.3125 11.8863C61.0322 12.6515 60.8921 13.5379 60.8921 14.5454C60.8921 15.5606 61.0322 16.4583 61.3125 17.2386C61.6004 18.0113 62.0133 18.6174 62.5512 19.0568C63.0966 19.4886 63.7671 19.7045 64.5625 19.7045ZM79.929 29.8182C79.3154 29.8182 78.7396 29.7689 78.2017 29.6704C77.6714 29.5795 77.232 29.4621 76.8835 29.3182L77.9745 25.7045C78.5426 25.8788 79.054 25.9735 79.5085 25.9886C79.9707 26.0038 80.3684 25.8977 80.7017 25.6704C81.0426 25.4432 81.3192 25.0568 81.5313 24.5113L81.8154 23.7727L75.554 5.81816H80.6449L84.2585 18.6363H84.4404L88.0881 5.81816H93.2131L86.429 25.1591C86.1032 26.0985 85.6601 26.9166 85.0995 27.6136C84.5464 28.3182 83.8457 28.8598 82.9972 29.2386C82.1487 29.625 81.126 29.8182 79.929 29.8182ZM102.938 23.2727V20.3523L114.551 4.0568H102.915V-2.28882e-05H120.733V2.92043L109.108 19.2159H120.756V23.2727H102.938ZM148.906 13.1818V23.2727H144.065V5.81816H148.679V8.89771H148.884C149.27 7.88255 149.918 7.07952 150.827 6.48861C151.736 5.89013 152.838 5.59089 154.134 5.59089C155.346 5.59089 156.402 5.85604 157.304 6.38634C158.206 6.91664 158.906 7.67422 159.406 8.65907C159.906 9.63634 160.156 10.803 160.156 12.1591V23.2727H155.315V13.0227C155.323 11.9545 155.05 11.1212 154.497 10.5227C153.944 9.91664 153.183 9.61361 152.213 9.61361C151.562 9.61361 150.986 9.75377 150.486 10.0341C149.993 10.3144 149.607 10.7235 149.327 11.2613C149.054 11.7916 148.914 12.4318 148.906 13.1818ZM171.926 23.6136C170.131 23.6136 168.585 23.25 167.29 22.5227C166.002 21.7879 165.009 20.75 164.313 19.4091C163.616 18.0606 163.267 16.4659 163.267 14.625C163.267 12.8295 163.616 11.2538 164.313 9.89771C165.009 8.54164 165.991 7.48483 167.256 6.72725C168.528 5.96967 170.021 5.59089 171.733 5.59089C172.884 5.59089 173.956 5.77649 174.949 6.14771C175.949 6.51134 176.82 7.06058 177.563 7.79543C178.313 8.53028 178.896 9.45452 179.313 10.5682C179.729 11.6742 179.938 12.9697 179.938 14.4545V15.7841H165.199V12.7841H175.381C175.381 12.0871 175.229 11.4697 174.926 10.9318C174.623 10.3939 174.203 9.97346 173.665 9.67043C173.134 9.35983 172.517 9.20452 171.813 9.20452C171.078 9.20452 170.426 9.37498 169.858 9.71589C169.297 10.0492 168.858 10.5 168.54 11.0682C168.222 11.6288 168.059 12.2538 168.051 12.9432V15.7954C168.051 16.6591 168.21 17.4053 168.528 18.0341C168.854 18.6629 169.313 19.1477 169.903 19.4886C170.494 19.8295 171.195 20 172.006 20C172.544 20 173.036 19.9242 173.483 19.7727C173.93 19.6212 174.313 19.3939 174.631 19.0909C174.949 18.7879 175.191 18.4166 175.358 17.9773L179.835 18.2727C179.608 19.3485 179.142 20.2879 178.438 21.0909C177.741 21.8863 176.839 22.5076 175.733 22.9545C174.634 23.3939 173.366 23.6136 171.926 23.6136Z" fill="white"/>
<path d="M25.233 23.6136C23.4678 23.6136 21.9413 23.2386 20.6534 22.4886C19.3731 21.731 18.3845 20.678 17.6875 19.3295C16.9906 17.9735 16.6421 16.4015 16.6421 14.6136C16.6421 12.8106 16.9906 11.2348 17.6875 9.88634C18.3845 8.53028 19.3731 7.47725 20.6534 6.72725C21.9413 5.96967 23.4678 5.59089 25.233 5.59089C26.9981 5.59089 28.5209 5.96967 29.8012 6.72725C31.089 7.47725 32.0815 8.53028 32.7784 9.88634C33.4754 11.2348 33.8239 12.8106 33.8239 14.6136C33.8239 16.4015 33.4754 17.9735 32.7784 19.3295C32.0815 20.678 31.089 21.731 29.8012 22.4886C28.5209 23.2386 26.9981 23.6136 25.233 23.6136ZM25.2557 19.8636C26.0587 19.8636 26.7292 19.6363 27.2671 19.1818C27.8049 18.7197 28.2102 18.0909 28.483 17.2954C28.7633 16.5 28.9034 15.5947 28.9034 14.5795C28.9034 13.5644 28.7633 12.6591 28.483 11.8636C28.2102 11.0682 27.8049 10.4394 27.2671 9.97725C26.7292 9.51513 26.0587 9.28407 25.2557 9.28407C24.4451 9.28407 23.7633 9.51513 23.2102 9.97725C22.6648 10.4394 22.2519 11.0682 21.9716 11.8636C21.6989 12.6591 21.5625 13.5644 21.5625 14.5795C21.5625 15.5947 21.6989 16.5 21.9716 17.2954C22.2519 18.0909 22.6648 18.7197 23.2102 19.1818C23.7633 19.6363 24.4451 19.8636 25.2557 19.8636ZM44.858 23.6136C43.0928 23.6136 41.5663 23.2386 40.2784 22.4886C38.9981 21.731 38.0095 20.678 37.3125 19.3295C36.6156 17.9735 36.2671 16.4015 36.2671 14.6136C36.2671 12.8106 36.6156 11.2348 37.3125 9.88634C38.0095 8.53028 38.9981 7.47725 40.2784 6.72725C41.5663 5.96967 43.0928 5.59089 44.858 5.59089C46.6231 5.59089 48.1459 5.96967 49.4262 6.72725C50.714 7.47725 51.7065 8.53028 52.4034 9.88634C53.1004 11.2348 53.4489 12.8106 53.4489 14.6136C53.4489 16.4015 53.1004 17.9735 52.4034 19.3295C51.7065 20.678 50.714 21.731 49.4262 22.4886C48.1459 23.2386 46.6231 23.6136 44.858 23.6136ZM44.8807 19.8636C45.6837 19.8636 46.3542 19.6363 46.8921 19.1818C47.4299 18.7197 47.8352 18.0909 48.108 17.2954C48.3883 16.5 48.5284 15.5947 48.5284 14.5795C48.5284 13.5644 48.3883 12.6591 48.108 11.8636C47.8352 11.0682 47.4299 10.4394 46.8921 9.97725C46.3542 9.51513 45.6837 9.28407 44.8807 9.28407C44.0701 9.28407 43.3883 9.51513 42.8352 9.97725C42.2898 10.4394 41.8769 11.0682 41.5966 11.8636C41.3239 12.6591 41.1875 13.5644 41.1875 14.5795C41.1875 15.5947 41.3239 16.5 41.5966 17.2954C41.8769 18.0909 42.2898 18.7197 42.8352 19.1818C43.3883 19.6363 44.0701 19.8636 44.8807 19.8636Z" fill="#FF0A0A"/>
<path d="M132.327 23.6136C130.562 23.6136 129.035 23.2386 127.747 22.4886C126.467 21.731 125.478 20.678 124.781 19.3295C124.084 17.9735 123.736 16.4015 123.736 14.6136C123.736 12.8106 124.084 11.2348 124.781 9.88634C125.478 8.53028 126.467 7.47725 127.747 6.72725C129.035 5.96967 130.562 5.59089 132.327 5.59089C134.092 5.59089 135.615 5.96967 136.895 6.72725C138.183 7.47725 139.175 8.53028 139.872 9.88634C140.569 11.2348 140.918 12.8106 140.918 14.6136C140.918 16.4015 140.569 17.9735 139.872 19.3295C139.175 20.678 138.183 21.731 136.895 22.4886C135.615 23.2386 134.092 23.6136 132.327 23.6136ZM132.349 19.8636C133.152 19.8636 133.823 19.6363 134.361 19.1818C134.899 18.7197 135.304 18.0909 135.577 17.2954C135.857 16.5 135.997 15.5947 135.997 14.5795C135.997 13.5644 135.857 12.6591 135.577 11.8636C135.304 11.0682 134.899 10.4394 134.361 9.97725C133.823 9.51513 133.152 9.28407 132.349 9.28407C131.539 9.28407 130.857 9.51513 130.304 9.97725C129.759 10.4394 129.346 11.0682 129.065 11.8636C128.793 12.6591 128.656 13.5644 128.656 14.5795C128.656 15.5947 128.793 16.5 129.065 17.2954C129.346 18.0909 129.759 18.7197 130.304 19.1818C130.857 19.6363 131.539 19.8636 132.349 19.8636Z" fill="#FF0909"/>
</svg>
